<?xml version="1.0" encoding="utf-8"?>
<!-- Generator: Adobe Illustrator 23.0.1, SVG Export Plug-In . SVG Version: 6.00 Build 0)  -->
<svg version="1.1" id="Mail_1_" xmlns="http://www.w3.org/2000/svg" xmlns:xlink="http://www.w3.org/1999/xlink" x="0px" y="0px"
	 viewBox="0 0 1024 1024" style="enable-background:new 0 0 1024 1024;" xml:space="preserve">
<style type="text/css">
	.st0{fill:url(#bg_1_);}
	.st1{fill:#FFFFFF;}
</style>
<g id="Background">
	
		<linearGradient id="bg_1_" gradientUnits="userSpaceOnUse" x1="751.2048" y1="212.3609" x2="721.8171" y2="227.8281" gradientTransform="matrix(0.9397 0.3421 -0.3421 0.9397 599.0018 -41.7571)">
		<stop  offset="0" style="stop-color:#001D3E"/>
		<stop  offset="0.1202" style="stop-color:#002547"/>
		<stop  offset="0.3161" style="stop-color:#003B5F"/>
		<stop  offset="0.5635" style="stop-color:#005F87"/>
		<stop  offset="0.8499" style="stop-color:#0090BE"/>
		<stop  offset="1" style="stop-color:#00ACDD"/>
	</linearGradient>
	<circle id="bg" class="st0" cx="511.9" cy="512.9" r="512"/>
</g>
<g id="Mail">
	<polygon class="st1" points="590.8,530.1 512,594.7 433.2,530.1 369,582.8 226,700 512,700 798,700 655,582.8 	"/>
	<polygon class="st1" points="405.1,510.5 311.6,419.7 218,328.9 218,510.5 218,692.1 311.6,601.3 	"/>
	<polygon class="st1" points="512,573.1 657.2,448.3 802.3,323.4 512,323.4 221.7,323.4 366.9,448.3 	"/>
	<polygon class="st1" points="712.4,419.7 618.9,510.5 712.4,601.3 806,692.1 806,510.5 806,328.9 	"/>
</g>
</svg>
